<mxfile host="app.diagrams.net" modified="2023-04-29T13:25:54.923Z" agent="Mozilla/5.0 (X11; Ubuntu; Linux x86_64; rv:109.0) Gecko/20100101 Firefox/110.0" version="21.2.3" etag="R0q2Ki7F9J9htDiVsU68" type="github">
  <diagram name="PÃ¡gina-1" id="NVKuUSKOJaavZ5cXqJvP">
    <mxGraphModel>
      <root>
        <mxCell id="0" />
        <mxCell id="1" parent="0" />
      </root>
    </mxGraphModel>
  </diagram>
</mxfile>
